# AST/ASF file generated using VICON BodyLanguage
# -----------------------------------------------
:version 1.10
:name VICON
:units
  mass 1.0
  length 0.45
  angle deg
:documentation
   .ast/.asf automatically generated from VICON data using
   VICON BodyBuilder and BodyLanguage model FoxedUp or BRILLIANT.MOD
:root
   order TX TY TZ RX RY RZ
   axis XYZ
   position 0 0 0  
   orientation 0 0 0 
:bonedata
  begin
     id 1 
     name lhipjoint
     direction 0.734343 -0.627749 0.258209 
     length 2.5437 
     axis 0 0 0  XYZ
  end
  begin
     id 2 
     name lfemur
     direction 0.34202 -0.939693 0  
     length 6.7391  
     axis 0 0 20  XYZ
    dof rx ry rz
    limits (-160.0 20.0)
           (-70.0 70.0)
           (-60.0 70.0)
  end
  begin
     id 3 
     name ltibia
     direction 0.34202 -0.939693 0   
     length 7.21536   
     axis 0 0 20   XYZ
    dof rx
    limits (-10.0 170.0)
  end
  begin
     id 4 
     name lfoot
     direction 0.0489572 -0.134509 0.989702   
     length 1.61313   
     axis -90 7.62852e-016 20   XYZ
    dof rx rz
    limits (-45.0 90.0)
           (-70.0 20.0)
  end
  begin
     id 5 
     name ltoes
     direction 1.53451e-011 -4.21692e-011 1   
     length 0.823104   
     axis -90 7.62852e-016 20   XYZ
    dof rx
    limits (-90.0 20.0)
  end
  begin
     id 6 
     name rhipjoint
     direction -0.746398 -0.615468 0.253157   
     length 2.59446  
     axis 0 0 0  XYZ 
  end
  begin
     id 7 
     name rfemur
     direction -0.34202 -0.939693 0   
     length 6.7075   
     axis 0 0 -20   XYZ
    dof rx ry rz
    limits (-160.0 20.0)
           (-70.0 70.0)
           (-70.0 60.0)
  end
  begin
     id 8 
     name rtibia
     direction -0.34202 -0.939693 0   
     length 7.27262   
     axis 0 0 -20   XYZ
    dof rx
    limits (-10.0 170.0)
 end
 begin
     id 9 
     name rfoot
     direction -0.0455203 -0.125066 0.991104   
     length 1.91095  
     axis -90 -7.62852e-016 -20   XYZ
    dof rx rz
    limits (-45.0 90.0)
           (-20.0 70.0)
  end
  begin
     id 10 
     name rtoes
     direction -1.53601e-011 -4.21913e-011 1   
     length 0.969037   
     axis -90 -7.62852e-016 -20   XYZ
    dof rx
    limits (-90.0 20.0)
  end
  begin
     id 11 
     name lowerback
     direction 0.0181546 0.999122 -0.0377542   
     length 1.99916   
     axis 0 0 0   XYZ
    dof rx ry rz
    limits (-20.0 45.0)
           (-30.0 30.0)
           (-30.0 30.0)
  end
  begin
     id 12 
     name upperback
     direction 0.0203486 0.99589 0.0882534   
     length 1.951   
     axis 0 0 0   XYZ
    dof rx ry rz
    limits (-20.0 45.0)
           (-30.0 30.0)
           (-30.0 30.0)
  end
  begin
     id 13 
     name thorax
     direction 0.0131685 0.994241 0.106355   
     length 1.97461   
     axis 0 0 0   XYZ
    dof rx ry rz
    limits (-20.0 45.0)
           (-30.0 30.0)
           (-30.0 30.0)
  end
  begin
     id 14 
     name lowerneck
     direction -0.0281395 0.999325 0.023617   
     length 1.7959   
     axis 0 0 0   XYZ
    dof rx ry rz
    limits (-20.0 45.0)
           (-30.0 30.0)
           (-30.0 30.0)
  end
  begin
     id 15 
     name upperneck
     direction 0.0288721 0.991984 -0.123019   
     length 1.79917   
     axis 0 0 0   XYZ
    dof rx ry rz
    limits (-20.0 45.0)
           (-30.0 30.0)
           (-30.0 30.0)
  end
  begin
     id 16
     name head
     direction 0.0133797 0.998944 -0.0439492  
     length 1.80902  
     axis 0 0 0   XYZ
    dof rx ry rz
    limits (-20.0 45.0)
           (-30.0 30.0)
           (-30.0 30.0)
  end
  begin
     id 17 
     name lclavicle
     direction 0.919195 0.377107 0.113449  
     length 3.17815  
     axis 0 0 0   XYZ
    dof ry rz
    limits (-20.0 10.0)
           (0.0 20.0)
  end
  begin
     id 18 
     name lhumerus
     direction 1 -4.48959e-011 2.13129e-027   
     length 4.84137   
     axis 180 -30 -90   XYZ
    dof rx ry rz
    limits (-60.0 90.0)
           (-90.0 90.0)
           (-90.0 90.0)
  end
  begin
     id 19
     name lradius
     direction 1 -4.48957e-011 -6.30627e-028   
     length 3.2452   
     axis 180 -30 -90   XYZ
    dof rx
    limits (-10.0 170.0)
  end
  begin
     id 20
     name lwrist
     direction 1 -4.4901e-011 9.13299e-027   
     length 1.6226   
     axis -6.84618e-015 90 90   XYZ
    dof ry
    limits (-180.0 0.0)
 end
  begin
     id 21 
     name lhand
     direction 1 -4.48816e-011 1.82293e-026   
     length 0.521221   
     axis -1.16502e-014 90 90   XYZ
    dof rx rz
    limits (-90.0 90.0)
           (-45.0 45.0)
  end
  begin
     id 22 
     name lfingers
     direction 1 -4.49108e-011 3.65687e-026   
     length 0.420221   
     axis -2.33008e-014 90 90   XYZ
    dof rx
    limits (0.0 90.0)
  end
  begin
     id 23
     name lthumb
     direction 0.707107 -6.34943e-011 0.707107   
     length 0.603356   
     axis -90 45 5.69224e-014   XYZ
    dof rx rz
    limits (-45.0 45.0)
           (-45.0 45.0)
  end
  begin
     id 24 
     name rclavicle
     direction -0.90847 0.38596 0.160368   
     length 3.12973  
     axis 0 0 0   XYZ 
    dof ry rz
    limits (-10.0 20.0)
           (-20.0 0.0)
  end
  begin
     id 25 
     name rhumerus
     direction -1 -4.48974e-011 4.47268e-028  
     length 4.72284   
     axis 180 30 90   XYZ
    dof rx ry rz
    limits (-90.0 60.0)
           (-90.0 90.0)
           (-90.0 90.0)
  end
  begin
     id 26 
     name rradius
     direction -1 -4.48969e-011 3.43203e-027   
     length 3.23459   
     axis 180 30 90   XYZ
    dof rx
    limits (-10.0 170.0)
  end
  begin
     id 27 
     name rwrist
     direction -1 -4.48969e-011 9.12911e-027   
     length 1.6173   
     axis -6.84618e-015 -90 -90   XYZ
    dof ry
    limits (-180.0 0.0)
  end
  begin
     id 28
     name rhand
     direction -1 -4.49194e-011 1.83006e-026   
     length 0.307416   
     axis -1.16502e-014 -90 -90   XYZ
    dof rx rz
    limits (-90.0 90.0)
           (-45.0 45.0)
  end
  begin
     id 29
     name rfingers
     direction -1 -4.48423e-011 3.63103e-026   
     length 0.247847   
     axis -2.33008e-014 -90 -90   XYZ
    dof rx
    limits (0.0 90.0)
  end
  begin
     id 30
     name rthumb
     direction -0.707107 -6.34802e-011 0.707107   
     length 0.35586   
     axis -90 -45 -5.69224e-014   XYZ
    dof rx rz
    limits (-45.0 45.0)
           (-45.0 45.0)
  end
:hierarchy
  begin
    root lhipjoint rhipjoint lowerback
    lhipjoint lfemur
    lfemur ltibia
    ltibia lfoot
    lfoot ltoes
    rhipjoint rfemur
    rfemur rtibia
    rtibia rfoot
    rfoot rtoes
    lowerback upperback
    upperback thorax
    thorax lowerneck lclavicle rclavicle
    lowerneck upperneck
    upperneck head
    lclavicle lhumerus
    lhumerus lradius
    lradius lwrist
    lwrist lhand lthumb
    lhand lfingers
    rclavicle rhumerus
    rhumerus rradius
    rradius rwrist
    rwrist rhand rthumb
    rhand rfingers
  end

#!OML:ASF H:\Terrain\Patient Classification 1\Animal1\Tuesday\Animal1.ASF
:FULLY-SPECIFIED
:DEGREES
1009
root 13.7506 16.5472 -12.5327 10.0929 -27.9356 1.00124
lowerback -4.17161 0.309041 0.489666
upperback -7.1711 0.367036 0.611821
thorax -5.08225 0.148109 0.361055
lowerneck -7.00942 0.442088 -3.17683
upperneck 19.2243 -0.301082 6.63489
head 7.01789 0.152481 2.65588
rclavicle 2.23633e-015 1.74931e-014
rhumerus -3.01475 37.8979 16.2641
rradius 23.5389
rwrist -29.0166
rhand -9.5707 14.2879
rfingers 7.12502
rthumb 16.397 -15.0391
lclavicle 2.23633e-015 1.74931e-014
lhumerus -9.23118 -18.4198 -2.77108
lradius 22.8934
lwrist -25.5892
lhand 10.0091 43.3606
lfingers 7.12502
lthumb 35.1349 69.885
rfemur -23.2492 27.3439 15.4726
rtibia 23.1663
rfoot -5.80497 -30.7464
rtoes -1.46804
lfemur -13.9278 -36.0073 -20.7983
ltibia 17.5897
lfoot -17.3931 31.7329
ltoes 16.8088
1010
root 13.7455 16.548 -12.5284 10.2201 -27.9775 0.893238
lowerback -4.24286 0.303177 0.573408
upperback -7.19627 0.359249 0.667924
thorax -5.06863 0.141203 0.372685
lowerneck -7.07079 0.502008 -3.22304
upperneck 19.3501 -0.222514 6.66243
head 7.06498 0.191052 2.68158
rclavicle 3.24019e-014 4.37326e-015
rhumerus -2.86567 38.2535 16.4725
rradius 23.468
rwrist -28.6186
rhand -8.72201 13.7461
rfingers 7.12502
rthumb 17.214 -15.5114
lclavicle 3.24019e-014 4.37326e-015
lhumerus -9.66498 -19.4606 -2.85125
lradius 23.325
lwrist -25.6307
lhand 10.3703 43.5108
lfingers 7.12502
lthumb 35.4774 69.954
rfemur -23.3013 27.2924 15.5643
rtibia 23.1361
rfoot -5.72747 -30.5482
rtoes -0.56824
lfemur -14.0028 -36.0802 -20.6405
ltibia 17.6122
lfoot -17.377 31.87
ltoes 16.5012
1011
root 13.7397 16.5459 -12.5285 10.2799 -28.0207 0.862176
lowerback -4.24986 0.289796 0.529658
upperback -7.1967 0.343461 0.721731
thorax -5.06573 0.137092 0.452967
lowerneck -7.18665 0.548754 -3.16552
upperneck 19.4532 -0.149336 6.56003
head 7.11562 0.224356 2.6469
rclavicle 2.40529e-014 7.15625e-015
rhumerus -2.76751 38.2189 16.6453
rradius 23.5443
rwrist -28.3146
rhand -8.04333 13.5816
rfingers 7.12502
rthumb 17.8672 -15.6177
lclavicle 2.40529e-014 7.15625e-015
lhumerus -9.92788 -20.1898 -2.91493
lradius 23.5644
lwrist -25.5685
lhand 11.0132 43.5082
lfingers 7.12502
lthumb 36.0867 69.8034
rfemur -23.3369 27.4465 15.5512
rtibia 23.0893
rfoot -6.2277 -30.679
rtoes -0.178862
lfemur -14.0631 -36.1679 -20.5503
ltibia 17.651
lfoot -17.471 31.8944
ltoes 16.8465
1012
root 13.7344 16.5451 -12.5284 10.2095 -28.0427 0.952234
lowerback -4.16682 0.294551 0.424669
upperback -7.2009 0.351584 0.716346
thorax -5.11777 0.146494 0.505777
lowerneck -7.24584 0.518253 -3.14318
upperneck 19.573 -0.181812 6.46548
head 7.16716 0.203911 2.61213
rclavicle 4.08502e-014 -1.19271e-015
rhumerus -2.7593 38.4024 16.8164
rradius 23.6653
rwrist -28.2921
rhand -7.50128 13.1189
rfingers 7.12502
rthumb 18.3887 -16.0319
lclavicle 4.08502e-014 -1.19271e-015
lhumerus -9.81262 -20.4668 -2.9903
lradius 23.3345
lwrist -25.67
lhand 11.449 43.4015
lfingers 7.12502
lthumb 36.4993 69.5937
rfemur -23.3114 27.5709 15.4769
rtibia 23.1066
rfoot -6.42819 -30.8824
rtoes -0.712874
lfemur -13.9814 -36.0241 -20.6685
ltibia 17.6126
lfoot -17.0816 31.8752
ltoes 16.0087
1013
root 13.7284 16.548 -12.5252 10.1752 -28.0973 0.995454
lowerback -4.14205 0.324086 0.410369
upperback -7.18986 0.390222 0.680114
thorax -5.12007 0.165573 0.475969
lowerneck -7.26636 0.477912 -3.20168
upperneck 19.6152 -0.234921 6.48629
head 7.18718 0.17647 2.62548
rclavicle -4.56708e-014 -1.07344e-014
rhumerus -2.8032 38.6773 16.8871
rradius 23.7182
rwrist -28.4016
rhand -7.80387 12.8064
rfingers 7.12502
rthumb 18.0975 -16.3717
lclavicle -4.56708e-014 -1.07344e-014
lhumerus -9.70024 -20.6766 -3.0909
lradius 23.2475
lwrist -25.4848
lhand 11.7037 43.6045
lfingers 7.12502
lthumb 36.7404 69.7357
rfemur -23.3186 27.6055 15.4606
rtibia 23.1789
rfoot -6.34617 -30.7575
rtoes -0.705926
lfemur -13.8529 -35.9035 -20.7535
ltibia 17.5116
lfoot -16.9736 31.8417
ltoes 16.0577
1014
root 13.725 16.5495 -12.5221 10.1692 -28.1036 1.03242
lowerback -4.19671 0.316369 0.409147
upperback -7.12399 0.378413 0.644942
thorax -5.0189 0.159113 0.440444
lowerneck -7.40916 0.483033 -3.1596
upperneck 19.6413 -0.235691 6.50396
head 7.22147 0.183337 2.62566
rclavicle -6.54995e-014 -1.39149e-014
rhumerus -2.83292 38.5541 16.8498
rradius 23.7015
rwrist -28.3222
rhand -8.3454 13.2727
rfingers 7.12502
rthumb 17.5765 -15.9528
lclavicle -6.54995e-014 -1.39149e-014
lhumerus -9.78398 -20.8868 -3.22848
lradius 23.4638
lwrist -24.9373
lhand 11.6701 43.7152
lfingers 7.12502
lthumb 36.7086 69.8544
rfemur -23.3674 27.5948 15.4367
rtibia 23.2945
rfoot -6.88504 -30.5994
rtoes 0.398932
lfemur -13.7574 -36.0012 -20.7762
ltibia 17.3569
lfoot -17.1635 31.7987
ltoes 17.0997
1015
root 13.7218 16.5483 -12.5217 10.1793 -28.1049 1.06165
lowerback -4.21683 0.299213 0.376882
upperback -7.10073 0.355378 0.637503
thorax -4.98288 0.149158 0.450909
lowerneck -7.46678 0.499667 -2.99656
upperneck 19.6554 -0.217677 6.40532
head 7.23617 0.196377 2.56782
rclavicle 6.31141e-015 3.97569e-016
rhumerus -2.81081 38.3069 16.8347
rradius 23.6943
rwrist -28.1538
rhand -8.48635 14.3305
rfingers 7.12502
rthumb 17.4408 -14.9071
lclavicle 6.31141e-015 3.97569e-016
lhumerus -9.93953 -21.0909 -3.33315
lradius 23.6865
lwrist -24.4273
lhand 11.3199 43.6947
lfingers 7.12502
lthumb 36.3771 69.9177
rfemur -23.4487 27.6106 15.4112
rtibia 23.4158
rfoot -7.52959 -30.6961
rtoes 1.08556
lfemur -13.711 -36.0748 -20.7569
ltibia 17.1854
lfoot -17.2853 31.7754
ltoes 17.5366
1016
root 13.7175 16.5474 -12.5202 10.1402 -28.1673 1.20651
lowerback -4.23885 0.299301 0.23811
upperback -7.09997 0.355151 0.603142
thorax -4.97024 0.15505 0.493043
lowerneck -7.40778 0.494531 -3.00195
upperneck 19.6268 -0.234496 6.45814
head 7.21699 0.191146 2.58371
rclavicle 5.41688e-015 -4.77083e-015
rhumerus -2.79853 38.1082 16.8403
rradius 23.7506
rwrist -27.9355
rhand -8.35419 14.7381
rfingers 7.12502
rthumb 17.568 -14.4881
lclavicle 5.41688e-015 -4.77083e-015
lhumerus -10.2344 -21.9931 -3.4213
lradius 24.208
lwrist -23.4997
lhand 11.1424 43.9554
lfingers 7.12502
lthumb 36.2091 70.2202
rfemur -23.5523 27.6392 15.2607
rtibia 23.5325
rfoot -7.56175 -30.8204
rtoes 0.667284
lfemur -13.6579 -36.1476 -20.8671
ltibia 17.0141
lfoot -17.278 31.9465
ltoes 17.2266
1017
root 13.7129 16.5488 -12.517 10.0666 -28.1886 1.37594
lowerback -4.26762 0.277614 0.0815205
upperback -7.05164 0.326495 0.567873
thorax -4.90326 0.147823 0.544245
lowerneck -7.43098 0.487599 -3.18386
upperneck 19.6399 -0.261431 6.68311
head 7.2258 0.184708 2.68659
rclavicle 1.27719e-014 -6.75868e-015
rhumerus -2.83726 37.9842 16.8474
rradius 23.7946
rwrist -27.5887
rhand -8.40394 15.0161
rfingers 7.12502
rthumb 17.5201 -14.2144
lclavicle 1.27719e-014 -6.75868e-015
lhumerus -10.6538 -22.9883 -3.51093
lradius 24.9841
lwrist -22.7087
lhand 11.2697 44.4955
lfingers 7.12502
lthumb 36.3296 70.7304
rfemur -23.5995 27.6361 15.1015
rtibia 23.6442
rfoot -7.66217 -30.8578
rtoes 0.606636
lfemur -13.5467 -36.1944 -21.0414
ltibia 16.8359
lfoot -16.9134 32.0555
ltoes 16.7182
